<svg id="camera-svgrepo-com_1_" data-name="camera-svgrepo-com (1)" xmlns="http://www.w3.org/2000/svg" width="29.368" height="27.27" viewBox="0 0 29.368 27.27">
  <path id="Trazado_19211" data-name="Trazado 19211" d="M3,7.1A2.1,2.1,0,0,1,5.1,5h.021a2.1,2.1,0,1,1,0,4.2H5.1A2.1,2.1,0,0,1,3,7.1Z" transform="translate(1.195 3.391)" fill="#fff"/>
  <path id="Trazado_19212" data-name="Trazado 19212" d="M11.293,5a6.293,6.293,0,1,0,6.293,6.293A6.293,6.293,0,0,0,11.293,5ZM8.147,11.293a3.147,3.147,0,1,1,3.147,3.147A3.147,3.147,0,0,1,8.147,11.293Z" transform="translate(3.391 3.391)" fill="#fff" fill-rule="evenodd"/>
  <path id="Trazado_19213" data-name="Trazado 19213" d="M9.508,2.46A2.622,2.622,0,0,1,11.858,1H19.51A2.621,2.621,0,0,1,21.86,2.46l1.133,2.293,3.056.26a4.72,4.72,0,0,1,4.319,4.7V23.551a4.72,4.72,0,0,1-4.72,4.72H5.72A4.72,4.72,0,0,1,1,23.551V9.716a4.72,4.72,0,0,1,4.319-4.7l3.054-.26L9.508,2.46Zm2.677,1.687L10.8,6.943a1.573,1.573,0,0,1-1.275.868l-3.94.336A1.573,1.573,0,0,0,4.147,9.716V23.551A1.574,1.574,0,0,0,5.72,25.124H25.648a1.573,1.573,0,0,0,1.573-1.573V9.716a1.573,1.573,0,0,0-1.439-1.569l-3.94-.336a1.573,1.573,0,0,1-1.275-.868l-1.385-2.8h-7Z" transform="translate(-1 -1)" fill="#fff" fill-rule="evenodd"/>
</svg>
