<svg xmlns="http://www.w3.org/2000/svg" width="21.66" height="14.891" viewBox="0 0 21.66 14.891">
  <g id="settings-svgrepo-com" transform="translate(0 -60.152)">
    <g id="Settings" transform="translate(0 60.152)">
      <path id="Trazado_19217" data-name="Trazado 19217" d="M.677,61.506H20.983a.677.677,0,1,0,0-1.354H.677a.677.677,0,1,0,0,1.354Z" transform="translate(0 -60.152)" fill="#fff"/>
      <path id="Trazado_19218" data-name="Trazado 19218" d="M20.983,300.758H.677a.677.677,0,0,0,0,1.354H20.983a.677.677,0,0,0,0-1.354Z" transform="translate(0 -287.221)" fill="#fff"/>
      <path id="Trazado_19219" data-name="Trazado 19219" d="M18.952,144.364a2.7,2.7,0,0,0-2.612,2.031H.677a.677.677,0,0,0,0,1.354H16.34a2.7,2.7,0,1,0,2.612-3.384Zm0,4.061a1.354,1.354,0,1,1,1.354-1.354A1.354,1.354,0,0,1,18.952,148.425Z" transform="translate(0 -139.626)" fill="#fff"/>
    </g>
  </g>
</svg>
