<svg xmlns="http://www.w3.org/2000/svg" width="29.73" height="30.614" viewBox="0 0 29.73 30.614">
  <g id="Grupo_1912" data-name="Grupo 1912" transform="translate(16.728 -2.37) rotate(60)">
    <path id="Trazado_15264" data-name="Trazado 15264" d="M1.066.369A.548.548,0,1,0,.03.727L.123,1A.548.548,0,1,0,1.159.638Z" transform="translate(0.29 12.133)" fill="#fff"/>
    <path id="Trazado_15265" data-name="Trazado 15265" d="M10.551,1.75A5.114,5.114,0,0,0,6.827,0C3.735,0,0,2.648,0,5.936a.548.548,0,1,0,1.1,0C1.1,3.329,4.247,1.1,6.827,1.1A4.035,4.035,0,0,1,9.748,2.5,5.889,5.889,0,0,1,11.3,6.787a5.247,5.247,0,0,1-5.287,4.62A3.673,3.673,0,0,1,2.541,9.465a.548.548,0,1,0-.921.594A4.745,4.745,0,0,0,6.01,12.5a6.359,6.359,0,0,0,6.38-5.636A6.922,6.922,0,0,0,10.551,1.75Z" transform="translate(0 4.741)" fill="#fff"/>
    <path id="Trazado_15266" data-name="Trazado 15266" d="M.839,1.378A2.185,2.185,0,0,1,3.291,1.6.548.548,0,0,0,3.973.744,3.268,3.268,0,0,0,.257.449a.548.548,0,1,0,.582.928Z" transform="translate(4.756 6.605)" fill="#fff"/>
    <path id="Trazado_15267" data-name="Trazado 15267" d="M10.03,1.932a.548.548,0,0,0,0,.775c1.843,1.843,1.194,5.651-.63,7.475a4.036,4.036,0,0,1-3.056,1.076,5.889,5.889,0,0,1-4.13-1.94,5.247,5.247,0,0,1,.472-7.005,3.675,3.675,0,0,1,3.826-1.08A.548.548,0,1,0,6.743.162,4.746,4.746,0,0,0,1.912,1.538a6.359,6.359,0,0,0-.526,8.5A6.923,6.923,0,0,0,6.3,12.353q.118,0,.235,0a5.056,5.056,0,0,0,3.635-1.4c2.187-2.187,2.955-6.7.631-9.025A.548.548,0,0,0,10.03,1.932Z" transform="translate(11.035 13.329)" fill="#fff"/>
    <path id="Trazado_15268" data-name="Trazado 15268" d="M0,2.6a.548.548,0,0,0,.543.486.569.569,0,0,0,.063,0A3.268,3.268,0,0,0,3.446.669.548.548,0,0,0,2.379.42,2.185,2.185,0,0,1,.486,2,.548.548,0,0,0,0,2.6Z" transform="translate(17.41 20.7)" fill="#fff"/>
    <path id="Trazado_15269" data-name="Trazado 15269" d="M.308,1.041l.256.125A.548.548,0,0,0,1.044.18L.788.055a.548.548,0,0,0-.48.985Z" transform="translate(19.034 14.137)" fill="#fff"/>
    <path id="Trazado_15270" data-name="Trazado 15270" d="M10.683,1.767C8.379-.3,3.83-.815,1.637,1.635a.548.548,0,1,0,.816.731c1.739-1.941,5.576-1.5,7.5.218a4.036,4.036,0,0,1,1.242,2.992,5.89,5.89,0,0,1-1.709,4.23A5.247,5.247,0,0,1,2.464,9.72a3.673,3.673,0,0,1-1.289-3.76A.548.548,0,0,0,.093,5.788a4.746,4.746,0,0,0,1.64,4.748A6.58,6.58,0,0,0,6.112,12.2a5.92,5.92,0,0,0,4.133-1.606A6.923,6.923,0,0,0,12.29,5.555,5.117,5.117,0,0,0,10.683,1.767Z" transform="translate(13.713 0)" fill="#fff"/>
    <path id="Trazado_15271" data-name="Trazado 15271" d="M.547,3.092a.519.519,0,0,0,.063,0A3.267,3.267,0,0,0,3.446.671.548.548,0,1,0,2.379.425,2.186,2.186,0,0,1,.486,2,.548.548,0,0,0,.547,3.092Z" transform="translate(19.94 7.281)" fill="#fff"/>
    <path id="Trazado_15272" data-name="Trazado 15272" d="M.336,1.316a.547.547,0,0,0,.717-.293L1.163.76A.548.548,0,1,0,.153.336L.043.6A.548.548,0,0,0,.336,1.316Z" transform="translate(14.35 3.11)" fill="#fff"/>
  </g>
</svg>
