<svg xmlns="http://www.w3.org/2000/svg" width="24.97" height="24.968" viewBox="0 0 24.97 24.968">
  <g id="Grupo_1907" data-name="Grupo 1907" transform="translate(0)">
    <path id="Trazado_15247" data-name="Trazado 15247" d="M24.97,461.294a1.946,1.946,0,0,0-1.5-1.892,1.946,1.946,0,0,0-1.385-2.346L22,457.034a1.931,1.931,0,0,0-.264-1.926l1.21-.324a1.945,1.945,0,0,0,.5-3.543,1.944,1.944,0,0,0-2.676-2.676,1.945,1.945,0,0,0-3.543.5l-.324,1.21A1.93,1.93,0,0,0,15.009,450a1.944,1.944,0,0,0-2.352-1.411,1.943,1.943,0,0,0-3.783,0,1.945,1.945,0,0,0-2.152,2.859l.626,1.084a1.941,1.941,0,0,0-1.13,3.3l2.252,2.252L.882,465.669a3.011,3.011,0,0,0,0,4.258l1.053,1.053h0l.2.2a3.014,3.014,0,0,0,4.257,0l1.153-1.153a.488.488,0,1,0-.69-.69L5.7,470.487a2.038,2.038,0,0,1-2.879,0l-.2-.2-.176-.176a7.98,7.98,0,0,0,3.942-2.151l4.324-4.324.916.916-1.676,1.676a.488.488,0,1,0,.689.689l3.331-3.331,2.252,2.252a1.939,1.939,0,0,0,3.3-1.13l1.085.626a1.945,1.945,0,0,0,2.859-2.152,1.946,1.946,0,0,0,1.5-1.892ZM6.623,454.455a.962.962,0,0,1,.284-.684A.973.973,0,0,1,8.05,453.6a.488.488,0,0,0,.654-.673l-1.139-1.972a.968.968,0,0,1,1.44-1.242.487.487,0,0,0,.791-.382v-.3a.968.968,0,0,1,1.936,0v.3a.488.488,0,0,0,.791.382.968.968,0,0,1,1.44,1.242l-1.139,1.972a.488.488,0,0,0,.654.673.968.968,0,0,1,1.143,1.536l-4.216,4.216-1.131,1.131-.916-.916,1.081-1.08c.011-.011.02-.022.03-.033s.023-.019.033-.03a.488.488,0,0,0,0-.69l-2.6-2.6a.962.962,0,0,1-.284-.684Zm-5.052,11.9,6.1-6.1.916.916L4.1,465.668A7.958,7.958,0,0,0,2.044,469.2q-.219.041-.441.068l-.032-.031a2.035,2.035,0,0,1,0-2.879Zm4.129.915a7,7,0,0,1-2.535,1.619,6.978,6.978,0,0,1,1.619-2.535l6.325-6.325,4.2-4.2a1.946,1.946,0,0,0,0-2.748,1.919,1.919,0,0,0-.567-.391v-.883a.968.968,0,0,1,1.894-.277.488.488,0,0,0,.938-.013l.589-2.2a.968.968,0,0,1,1.9.141.488.488,0,0,0,.829.289l.215-.215a.968.968,0,1,1,1.369,1.369l-.215.215a.488.488,0,0,0,.29.83.968.968,0,0,1,.141,1.9l-2.2.589a.488.488,0,0,0-.013.938.968.968,0,0,1-.277,1.894h-.856a1.913,1.913,0,0,0-.369-.518,1.945,1.945,0,0,0-2.748,0l-4.2,4.2-.013.013Zm17.326-5.012h-.3a.488.488,0,0,0-.382.791.968.968,0,0,1-1.241,1.441l-1.972-1.139a.488.488,0,0,0-.673.654.967.967,0,0,1-1.536,1.143l-2.6-2.6a.488.488,0,0,0-.69,0l-1.311,1.31-.916-.916,1.31-1.311,4.2-4.2a.968.968,0,0,1,1.536,1.143.488.488,0,0,0,.673.654l1.972-1.138a.968.968,0,0,1,1.241,1.44.488.488,0,0,0,.382.791h.3a.968.968,0,0,1,0,1.936Z" transform="translate(0 -447.089)" fill="#fff"/>
    <path id="Trazado_15248" data-name="Trazado 15248" d="M45.666,482.742H42.66a.488.488,0,1,0,0,.975h3.006a.488.488,0,1,0,0-.975Z" transform="translate(-25.947 -469.025)" fill="#fff"/>
    <path id="Trazado_15249" data-name="Trazado 15249" d="M27.072,463.323a.488.488,0,0,0,.488-.488v-3.006a.488.488,0,0,0-.975,0v3.006A.488.488,0,0,0,27.072,463.323Z" transform="translate(-16.357 -454.627)" fill="#fff"/>
    <path id="Trazado_15250" data-name="Trazado 15250" d="M46.068,462.357a.486.486,0,0,0,.345-.143l1.479-1.479a.488.488,0,0,0-.69-.689l-1.479,1.478a.488.488,0,0,0,.345.833Z" transform="translate(-28.044 -454.973)" fill="#fff"/>
    <path id="Trazado_15251" data-name="Trazado 15251" d="M21.961,500.5a.487.487,0,1,0,.345.142A.494.494,0,0,0,21.961,500.5Z" transform="translate(-13.212 -479.954)" fill="#fff"/>
  </g>
</svg>
