<svg xmlns="http://www.w3.org/2000/svg" width="13.357" height="29.799" viewBox="0 0 13.357 29.799">
  <g id="Grupo_1911" data-name="Grupo 1911" transform="translate(0)">
    <path id="Trazado_15261" data-name="Trazado 15261" d="M159.327,441.85a2.161,2.161,0,0,1-2.262-2.037v-2.368h-2.155a2.048,2.048,0,1,1,0-4.074h2.155v-4.117h-2.631a1.555,1.555,0,0,1-1.224-.569,1.254,1.254,0,0,1-.179-1.249l2.27-6.734a.661.661,0,0,1,.806-.388.574.574,0,0,1,.431.726l-2.274,6.745-.009.025a.2.2,0,0,0,.011.2.212.212,0,0,0,.168.076h3.277a.685.685,0,0,1,.457.17.555.555,0,0,1,.189.412v5.281a.616.616,0,0,1-.646.582h-2.8a.878.878,0,1,0,0,1.746h2.8a.617.617,0,0,1,.646.582v2.95a.975.975,0,0,0,1.939,0v-2.95a.617.617,0,0,1,.646-.582h2.8a.878.878,0,1,0,0-1.746h-2.8a.585.585,0,1,1,0-1.164h2.8a2.048,2.048,0,1,1,0,4.074h-2.155v2.368a2.161,2.161,0,0,1-2.262,2.037Zm1.616-12.6a.585.585,0,1,1,0-1.164h3.276a.206.206,0,0,0,.162-.074.161.161,0,0,0,.031-.16l-4.89-14.507a.189.189,0,0,0-.2-.132h0a.181.181,0,0,0-.191.126l-.906,2.687a.661.661,0,0,1-.806.388.575.575,0,0,1-.431-.726L157.9,413a1.472,1.472,0,0,1,1.428-.952h0a1.472,1.472,0,0,1,1.429.962l4.889,14.5a1.226,1.226,0,0,1-.229,1.191,1.539,1.539,0,0,1-1.2.545Z" transform="translate(-152.649 -412.051)" fill="#fff"/>
    <path id="Trazado_15262" data-name="Trazado 15262" d="M163.779,432.442a.722.722,0,0,1-.167-.02.579.579,0,0,1-.458-.712.657.657,0,0,1,.791-.413.579.579,0,0,1,.458.712h0a.64.64,0,0,1-.624.432Z" transform="translate(-159.662 -425.545)" fill="#fff"/>
    <path id="Trazado_15263" data-name="Trazado 15263" d="M176.4,475.792a.585.585,0,1,1,.646-.582h0A.617.617,0,0,1,176.4,475.792Z" transform="translate(-168.105 -455.971)" fill="#fff"/>
  </g>
</svg>
