<svg xmlns="http://www.w3.org/2000/svg" width="28.815" height="27.705" viewBox="0 0 28.815 27.705">
  <g id="Grupo_1903" data-name="Grupo 1903" transform="translate(0)">
    <g id="Grupo_1902" data-name="Grupo 1902" transform="translate(0 0)">
      <path id="Trazado_15230" data-name="Trazado 15230" d="M21.148,461.049a7.678,7.678,0,0,0-5.568-1.96,1.775,1.775,0,0,0-1.74,1.74A7.679,7.679,0,0,0,15.8,466.4a3.618,3.618,0,0,0,3.218,1.171,3.971,3.971,0,0,0,2.109-1.193,3.981,3.981,0,0,0,1.248-2.6,3.658,3.658,0,0,0-1.225-2.728Zm-.792,4.5a3.554,3.554,0,0,1-1.336.856A2.45,2.45,0,0,1,16.6,465.6a6.574,6.574,0,0,1-1.631-4.748.652.652,0,0,1,.639-.639,6.57,6.57,0,0,1,4.748,1.631,2.592,2.592,0,0,1,.9,1.887,2.879,2.879,0,0,1-.892,1.821Z" transform="translate(-6.019 -455.705)" fill="#fff"/>
      <path id="Trazado_15231" data-name="Trazado 15231" d="M11.077,483.448a.563.563,0,1,0,.184-.8.569.569,0,0,0-.184.8Z" transform="translate(-4.778 -465.923)" fill="#fff"/>
      <path id="Trazado_15232" data-name="Trazado 15232" d="M28.773,473.534a5.406,5.406,0,0,0-.106-.609,6.968,6.968,0,0,0-1.172-5.32,18.179,18.179,0,0,0-3.214-3.761,6.427,6.427,0,0,0-2.443-1.368,5.188,5.188,0,0,1-3.311-3.242,6.106,6.106,0,0,0-.769-1.526,6.3,6.3,0,0,0-1.174-1.278,13.2,13.2,0,0,0-9.7-3.279,2.608,2.608,0,0,0-2.4,2.4,12.012,12.012,0,0,0,.358,4.168,14.568,14.568,0,0,0,2.921,5.533,6.3,6.3,0,0,0,2.8,1.942,5.137,5.137,0,0,1,2.011,1.279,5.374,5.374,0,0,1,.36.409,9.636,9.636,0,0,0-4.069.056.563.563,0,1,0,.252,1.1q.219-.05.439-.089a16.531,16.531,0,0,0-.632,2.523,14.486,14.486,0,0,1-2.393.2,5.182,5.182,0,0,1-3.905-1.583,7.847,7.847,0,0,0,.913.388,3.415,3.415,0,0,0,.723.164.563.563,0,1,0,.128-1.118,2.3,2.3,0,0,1-.481-.109,7.64,7.64,0,0,1-1.569-.78A1.538,1.538,0,0,0,0,470.918v1.8a6.722,6.722,0,0,0,2.371,5.158,12.205,12.205,0,0,0,5.172,2.658,11.492,11.492,0,0,0,4.557.09,12.979,12.979,0,0,0,4.165-1.509,10.862,10.862,0,0,0,5.184,1.523,8.548,8.548,0,0,0,2.582-.26,5.792,5.792,0,0,0,3.578-2.314,6.65,6.65,0,0,0,1.2-3.853,5.735,5.735,0,0,0-.035-.619.461.461,0,0,0-.007-.055c-.024-.206,0,.019,0,0Zm-18.5-.171a5.869,5.869,0,0,1,3.981.154,5.059,5.059,0,0,1,.552.278,2.88,2.88,0,0,0,2.818.067,12.353,12.353,0,0,1,3.9-1.37,23.24,23.24,0,0,1,.146,3.932,7.154,7.154,0,0,1-3.647-.615,4.035,4.035,0,0,0-3.76.106,9.178,9.178,0,0,1-4.306.819,13.331,13.331,0,0,1-.023-3.3l.341-.067Zm12.378-.958a8.759,8.759,0,0,1,4.762,1.366,8.43,8.43,0,0,1-3.47,2.163,9.761,9.761,0,0,1-1.137.32,24.453,24.453,0,0,0-.155-3.849Zm-4.136-5.175a3.584,3.584,0,0,1,1.319-.851,2.449,2.449,0,0,1,2.442.8,5.04,5.04,0,0,1,.981,1.4,13.016,13.016,0,0,0-5.606.847,2.654,2.654,0,0,1,.864-2.2Zm4.71,2.478a5,5,0,0,1,2.378.7,4.5,4.5,0,0,1,1.72,2.013,9.688,9.688,0,0,0-4.824-1.148c-.1-.654-.2-1.2-.288-1.6.327,0,.665,0,1.013.029Zm-9.839-2.024a6.272,6.272,0,0,0-2.456-1.558,5.155,5.155,0,0,1-2.3-1.592,12.086,12.086,0,0,1-3.027-8.878,1.489,1.489,0,0,1,1.385-1.385A12.088,12.088,0,0,1,15.87,457.3a5.184,5.184,0,0,1,.964,1.05,4.974,4.974,0,0,1,.628,1.245,6.332,6.332,0,0,0,4.043,3.957,5.3,5.3,0,0,1,2.021,1.127c1.18,1.071,3.531,3.472,4.056,6.014a5.583,5.583,0,0,0-3.037-1.932,6.327,6.327,0,0,0-1.475-2.373,3.663,3.663,0,0,0-2.729-1.226,3.978,3.978,0,0,0-2.594,1.245A3.672,3.672,0,0,0,16.6,469.9c-.141.072-.262.138-.359.194a12.819,12.819,0,0,0-1.687-.759,6.3,6.3,0,0,0-1.169-1.65Zm.568,2.634a12.963,12.963,0,0,1,1.57.671c.166.086.327.188.5.266a.57.57,0,0,0,.549-.042,8.307,8.307,0,0,1,1.793-.841,12.016,12.016,0,0,1,2.5-.6l.211-.025c.078.367.189.932.3,1.624a13.531,13.531,0,0,0-4.264,1.49,1.771,1.771,0,0,1-1.732-.039,6.008,6.008,0,0,0-.677-.342,6.852,6.852,0,0,0-4.579-.235,14.922,14.922,0,0,1,.689-2.426,9.109,9.109,0,0,1,3.148.5c.537.193-1.012-.342,0,0Zm-7.416,3.477a15.314,15.314,0,0,0,2.241-.163,14.261,14.261,0,0,0,.027,3,7.6,7.6,0,0,1-5.97-3.421,7.082,7.082,0,0,1-.428-.812A6.4,6.4,0,0,0,6.537,473.795Zm-3.44,3.22a5.6,5.6,0,0,1-1.971-4.3v-.486a8.363,8.363,0,0,0,.72,1.524,7.78,7.78,0,0,0,2.685,2.667,10.548,10.548,0,0,0,4.461,1.363,11.952,11.952,0,0,0,.562,1.888,9.978,9.978,0,0,1-1.788-.243A11.108,11.108,0,0,1,3.1,477.015Zm12.841.978a11.607,11.607,0,0,1-4.078,1.529q-.549.095-1.094.134a10.508,10.508,0,0,1-.6-1.784c.086,0,.18,0,.28,0a10.219,10.219,0,0,0,4.291-.943,2.917,2.917,0,0,1,2.8-.106,8.225,8.225,0,0,0,4.02.733,10.471,10.471,0,0,1-.436,1.94,10.142,10.142,0,0,1-4.587-1.527.562.562,0,0,0-.6.02Zm7.861,1.281a11.2,11.2,0,0,1-1.494.216,12.521,12.521,0,0,0,.406-2.07,10.678,10.678,0,0,0,1.6-.423,10.474,10.474,0,0,0,3.3-1.848A4.864,4.864,0,0,1,23.8,479.274Z" transform="translate(0 -453.102)" fill="#fff"/>
    </g>
  </g>
</svg>
