<svg xmlns="http://www.w3.org/2000/svg" width="16.29" height="25.506" viewBox="0 0 16.29 25.506">
  <g id="Grupo_1882" data-name="Grupo 1882" transform="translate(0)">
    <path id="Trazado_15219" data-name="Trazado 15219" d="M108.638,452.5a.5.5,0,0,0-.516-.4l-.158.01a8.457,8.457,0,0,0,.1-4.682.5.5,0,0,0-.316-.342,8.471,8.471,0,0,0-.19-4.578v-2.814a.5.5,0,1,0-1,0v2.467a8.437,8.437,0,0,0-2.776,1.249,8.452,8.452,0,0,0-2.583-4.092.5.5,0,0,0-.654,0,8.408,8.408,0,0,0-2.656,4.375,8.444,8.444,0,0,0-3.152-1.53v-2.47a.5.5,0,1,0-1,0v2.782a8.468,8.468,0,0,0-.2,4.61.5.5,0,0,0-.317.342,8.458,8.458,0,0,0,.1,4.682l-.158-.01a.5.5,0,0,0-.516.4,8.42,8.42,0,0,0,7.494,9.975V464.2a.5.5,0,1,0,1,0v-1.724a8.461,8.461,0,0,0,2.233-.52.5.5,0,0,0,.288-.643.5.5,0,0,0-.465-.321.493.493,0,0,0-.178.033,7.46,7.46,0,0,1-1.814.442,7.553,7.553,0,0,1-.063-.97,7.357,7.357,0,0,1,.523-2.741c.018-.044.145-.338.176-.4a7.47,7.47,0,0,1,.877-1.419,7.372,7.372,0,0,1,4.586-2.744h0c.14-.024.28-.045.422-.061a7.541,7.541,0,0,1,.063.97,7.359,7.359,0,0,1-1.469,4.424.5.5,0,0,0,.4.8.494.494,0,0,0,.4-.2,8.383,8.383,0,0,0,1.666-5.019,8.5,8.5,0,0,0-.153-1.6Zm-14.032-5.293a7.459,7.459,0,0,1-.027-4.059,7.42,7.42,0,0,1,5.5,8.15q-.17-.3-.365-.592a8.43,8.43,0,0,0-5.111-3.5Zm6.6,4.091a7.42,7.42,0,0,1,5.5-8.15,7.462,7.462,0,0,1-.027,4.059,8.428,8.428,0,0,0-5.111,3.5q-.2.289-.365.592Zm-.334-10.928a7.443,7.443,0,0,1,2.053,3.716,8.395,8.395,0,0,0-2.282,3.4,8.379,8.379,0,0,0-1.893-3.026,7.4,7.4,0,0,1,2.122-4.09Zm-6.787,7.746a7.423,7.423,0,0,1,6.058,6.83,8.338,8.338,0,0,0,0,.936q-.017.275-.055.55a8.417,8.417,0,0,0-5.655-4.168,7.444,7.444,0,0,1-.348-4.147Zm6,13.352a7.424,7.424,0,0,1-6.524-8.339,7.425,7.425,0,0,1,6.524,8.339Zm4.65-8.46a8.455,8.455,0,0,0-3.535,3.421q-.038-.274-.055-.548a8.423,8.423,0,0,0,0-.936,7.423,7.423,0,0,1,6.058-6.83,7.448,7.448,0,0,1-.348,4.146q-.236.049-.469.111a8.439,8.439,0,0,0-1.651.635Z" transform="translate(-92.501 -439.194)" fill="#fff"/>
    <circle id="Elipse_78" data-name="Elipse 78" cx="0.498" cy="0.498" r="0.498" transform="translate(12.154 20.717)" fill="#fff"/>
  </g>
</svg>
