<svg xmlns="http://www.w3.org/2000/svg" width="27.846" height="23.929" viewBox="0 0 27.846 23.929">
  <g id="Grupo_1893" data-name="Grupo 1893" transform="translate(0)">
    <g id="Grupo_1884" data-name="Grupo 1884" transform="translate(15.88 5.438)">
      <g id="Grupo_1883" data-name="Grupo 1883">
        <path id="Trazado_15220" data-name="Trazado 15220" d="M30.172,442.12a1.088,1.088,0,1,0,1.088,1.088A1.087,1.087,0,0,0,30.172,442.12Z" transform="translate(-29.084 -442.12)" fill="#fff"/>
      </g>
    </g>
    <g id="Grupo_1886" data-name="Grupo 1886" transform="translate(9.79 5.438)">
      <g id="Grupo_1885" data-name="Grupo 1885">
        <path id="Trazado_15221" data-name="Trazado 15221" d="M19.017,442.12a1.088,1.088,0,1,0,1.088,1.088A1.087,1.087,0,0,0,19.017,442.12Z" transform="translate(-17.929 -442.12)" fill="#fff"/>
      </g>
    </g>
    <g id="Grupo_1888" data-name="Grupo 1888" transform="translate(7.614 11.42)">
      <g id="Grupo_1887" data-name="Grupo 1887">
        <path id="Trazado_15222" data-name="Trazado 15222" d="M14.489,453.076a.544.544,0,1,0,.544.544A.544.544,0,0,0,14.489,453.076Z" transform="translate(-13.945 -453.076)" fill="#fff"/>
      </g>
    </g>
    <g id="Grupo_1890" data-name="Grupo 1890" transform="translate(7.695 13.594)">
      <g id="Grupo_1889" data-name="Grupo 1889">
        <path id="Trazado_15223" data-name="Trazado 15223" d="M19.135,459.152a4.971,4.971,0,0,0-2.049-.457,2.126,2.126,0,0,1-1.327-.355,1.7,1.7,0,0,1-.6-.885.544.544,0,0,0-1.048.292A2.8,2.8,0,0,0,15.1,459.2a3.116,3.116,0,0,0,1.931.58,3.878,3.878,0,0,1,1.636.351.544.544,0,0,0,.473-.979Z" transform="translate(-14.093 -457.057)" fill="#fff"/>
      </g>
    </g>
    <g id="Grupo_1892" data-name="Grupo 1892" transform="translate(0)">
      <g id="Grupo_1891" data-name="Grupo 1891">
        <path id="Trazado_15224" data-name="Trazado 15224" d="M23.874,445.363a6.007,6.007,0,0,0,2.6-1.972,6.639,6.639,0,0,0,1.261-2.982,8.3,8.3,0,0,0,.1-1.853c-.1-2.166-.091-2.071-.105-2.144a4.614,4.614,0,0,0-1.951-2.913l-.854-.569a4.579,4.579,0,0,0-4.59-.286l-1.323.661a.544.544,0,0,0-.058.939l1.052.7a2.682,2.682,0,0,0,.428,3.911,10.237,10.237,0,0,0,3.643,1.826,1.349,1.349,0,0,1-.665.768l-1.192.612a1.635,1.635,0,0,0-1.871-.808,5.075,5.075,0,0,1-4.448-.979l-1.059-.953a1.368,1.368,0,0,0-1.833,0l-1.311,1.18a4.948,4.948,0,0,1-4.274.731,1.6,1.6,0,0,0-1.8.822l-1.182-.606a1.352,1.352,0,0,1-.665-.768,7.5,7.5,0,0,0,2.512-1.072l1.132-.755a2.683,2.683,0,0,0,.429-3.911l1.052-.7a.544.544,0,0,0-.058-.939l-1.322-.661a4.581,4.581,0,0,0-4.59.286l-.854.569a4.613,4.613,0,0,0-1.951,2.913.51.51,0,0,0-.01.081,18.612,18.612,0,0,0,0,3.915,6.648,6.648,0,0,0,1.262,2.982,6,6,0,0,0,2.6,1.972c.06.024,0,0,1.468.38a4.972,4.972,0,0,0,.153,1.181l-1.917.479a.551.551,0,0,0-.253.143l-2.175,2.175a.545.545,0,0,0-.159.385v2.175a.544.544,0,1,0,1.088,0v-1.95l1.909-1.909,1.894-.473a5.041,5.041,0,0,0,.484.765l-1.812.906a.546.546,0,0,0-.244.243L3.32,452.039a.545.545,0,0,0,0,.487L4.408,454.7a.544.544,0,1,0,.973-.486l-.966-1.932.885-1.77,1.958-.979a4.918,4.918,0,0,0,1.106.685L6.685,451.9a.544.544,0,0,0-.159.385v2.175a.544.544,0,0,0,.3.486L9,456.031a.544.544,0,0,0,.486-.973l-1.875-.937v-1.614l1.93-1.93a5.009,5.009,0,0,0,.846.073,2.067,2.067,0,0,1,1.477.616,2.47,2.47,0,0,0,4.111,0,1.381,1.381,0,0,1,1.151-.616,5.164,5.164,0,0,0,1.119-.126l1.983,1.983v1.614l-1.875.937a.544.544,0,0,0,.486.973l2.175-1.088a.544.544,0,0,0,.3-.486v-2.175a.544.544,0,0,0-.159-.385l-1.764-1.764a5.58,5.58,0,0,0,1.073-.66l2.076,1.038.885,1.77-.966,1.932a.544.544,0,1,0,.973.486l1.088-2.175a.545.545,0,0,0,0-.487l-1.088-2.175a.546.546,0,0,0-.244-.243l-1.9-.948a4.983,4.983,0,0,0,.512-.738l1.95.488,1.909,1.909v1.95a.544.544,0,1,0,1.088,0v-2.175a.544.544,0,0,0-.159-.385l-2.175-2.175a.545.545,0,0,0-.253-.143l-1.934-.484a4.464,4.464,0,0,0,.17-1.177C23.875,445.366,23.815,445.387,23.874,445.363Zm-2.841-7.411a1.607,1.607,0,0,1-.117-2.4l1.3.864a.544.544,0,0,0,.6-.905l-2.483-1.655.485-.243a3.492,3.492,0,0,1,3.5.218l.854.57a3.518,3.518,0,0,1,1.48,2.182l.093,2.023v.006a7.422,7.422,0,0,1-.024,1.158h-1.03A7.87,7.87,0,0,1,21.033,437.951Zm1.373,5.236,1.5-.769a2.431,2.431,0,0,0,1.254-1.577c.177.013.355.019.533.019h.83a5.364,5.364,0,0,1-.912,1.868A4.941,4.941,0,0,1,23.5,444.34l-1.1.281v-1.433Zm-21.212-6.6a3.519,3.519,0,0,1,1.48-2.183l.854-.57a3.492,3.492,0,0,1,3.5-.218l.484.242-2.483,1.656a.544.544,0,1,0,.6.9l1.3-.864a1.607,1.607,0,0,1-.116,2.4l-1.132.755a6.363,6.363,0,0,1-3.526,1.068H1.122A23.575,23.575,0,0,1,1.193,436.587Zm4.245,8.033-1.095-.28a4.947,4.947,0,0,1-2.108-1.611,5.383,5.383,0,0,1-.912-1.868h.832c.177,0,.355-.007.532-.019a2.434,2.434,0,0,0,1.254,1.577l1.5.768Zm15.88,1.079a4.143,4.143,0,0,1-4.189,3.864,2.465,2.465,0,0,0-2.056,1.1,1.383,1.383,0,0,1-2.3,0,3.073,3.073,0,0,0-2.382-1.1A3.863,3.863,0,0,1,6.526,445.7v-2.907a.516.516,0,0,1,.638-.5,6.046,6.046,0,0,0,5.257-.979l1.311-1.18a.282.282,0,0,1,.379,0l1.058.953a6.149,6.149,0,0,0,5.462,1.22.543.543,0,0,1,.687.524v2.87Z" transform="translate(0 -432.16)" fill="#fff"/>
      </g>
    </g>
  </g>
</svg>
