<svg xmlns="http://www.w3.org/2000/svg" width="25.195" height="25.195" viewBox="0 0 25.195 25.195">
  <g id="Grupo_1906" data-name="Grupo 1906" transform="translate(0)">
    <path id="Trazado_15243" data-name="Trazado 15243" d="M8.852,502.259a.492.492,0,1,0,.006.7.491.491,0,0,0-.006-.7Z" transform="translate(-3.781 -482.142)" fill="#fff"/>
    <path id="Trazado_15244" data-name="Trazado 15244" d="M24.712,475.313a15.307,15.307,0,0,0-10.36-10.478,12.091,12.091,0,0,0-7.508.136,6.993,6.993,0,0,1-2.413.337,3.406,3.406,0,0,0-2.645.784A3.408,3.408,0,0,0,1,468.737a7,7,0,0,1-.337,2.413,11.909,11.909,0,0,0-.409,6.4,14.9,14.9,0,0,0,2.633,5.844.492.492,0,0,0,.792-.585,12.239,12.239,0,0,1-2.09-11.323,7.923,7.923,0,0,0,.4-2.734c.011-.947.04-1.5.5-1.961s1.013-.484,1.96-.5a7.913,7.913,0,0,0,2.735-.4c4.16-1.5,9.361-.1,12.943,3.485,3.072,3.072,5.306,8.359,3.369,13.245A9.162,9.162,0,0,1,18.32,487.8c-3.653,1.448-8,.707-11.637-1.984a.492.492,0,1,0-.586.791,14.843,14.843,0,0,0,6.016,2.674,12.62,12.62,0,0,0,2.349.223,11.439,11.439,0,0,0,4.221-.79,10.142,10.142,0,0,0,5.721-5.721,11.989,11.989,0,0,0,.308-7.677Z" transform="translate(0 -464.305)" fill="#fff"/>
    <path id="Trazado_15245" data-name="Trazado 15245" d="M13.574,488.808a10.646,10.646,0,0,0,2.991.442,9.05,9.05,0,0,0,3.347-.627,7.8,7.8,0,0,0,4.4-4.4,9.69,9.69,0,0,0,.184-6.338,12.964,12.964,0,0,0-8.689-8.689,9.69,9.69,0,0,0-6.339.183,7.8,7.8,0,0,0-4.4,4.4,9.691,9.691,0,0,0-.184,6.338,12.969,12.969,0,0,0,8.689,8.689Zm-7.59-14.665a6.821,6.821,0,0,1,3.851-3.852,8.075,8.075,0,0,1,2.988-.562,11.408,11.408,0,0,1,7.73,3.409c2.529,2.529,4.39,6.824,2.847,10.718a6.823,6.823,0,0,1-3.851,3.851,8.067,8.067,0,0,1-2.988.562,11.406,11.406,0,0,1-7.73-3.409c-2.529-2.528-4.39-6.823-2.847-10.718Z" transform="translate(-2.096 -466.402)" fill="#fff"/>
    <path id="Trazado_15246" data-name="Trazado 15246" d="M12.734,486.877a2.644,2.644,0,0,0,2.446.719,2.445,2.445,0,0,0,3.563.856,1.722,1.722,0,0,0,1.9-.358,1.713,1.713,0,0,0,0-2.424l-.487-.487a.508.508,0,0,1,.718-.719l.487.487a1.714,1.714,0,0,0,2.782-1.9,2.446,2.446,0,0,0-.265-3.127,2.421,2.421,0,0,0-.591-.436,2.661,2.661,0,0,0-3.165-3.165,2.434,2.434,0,0,0-3.563-.857,1.714,1.714,0,0,0-1.9,2.782l.487.487a.509.509,0,0,1-.718.721l-.488-.489a1.714,1.714,0,0,0-2.782,1.9,2.433,2.433,0,0,0,.857,3.562,2.643,2.643,0,0,0,.718,2.446Zm2.621-10.356a.733.733,0,0,1,.958-.067.492.492,0,0,0,.641-.039,1.452,1.452,0,0,1,2.411.648.491.491,0,0,0,.666.319,1.675,1.675,0,0,1,2.2,2.2l0,.007,0,.007a1.21,1.21,0,0,1-.918.748,1.077,1.077,0,0,1-1.027-.388.492.492,0,1,0-.745.642,2.067,2.067,0,0,0,1.581.747,2.106,2.106,0,0,0,.357-.031A2.2,2.2,0,0,0,22.9,480.4a1.452,1.452,0,0,1,.3,2.258.493.493,0,0,0-.039.642.73.73,0,0,1-1.1.957l-.487-.487a1.5,1.5,0,0,0-1.7-.289l-3.737-3.735a1.5,1.5,0,0,0-.289-1.705l-.487-.487a.73.73,0,0,1,0-1.032Zm-3.248,4.741a.492.492,0,0,0,.039-.641.73.73,0,0,1,1.1-.958l.488.489a1.5,1.5,0,0,0,1.7.288l3.737,3.736a1.5,1.5,0,0,0,.289,1.7l.487.487a.73.73,0,0,1,0,1.031.732.732,0,0,1-.957.067.493.493,0,0,0-.642.039,1.458,1.458,0,0,1-2.039-.013,1.439,1.439,0,0,1-.371-.634.492.492,0,0,0-.667-.319,1.674,1.674,0,0,1-2.2-2.2l0-.008,0-.005a1.211,1.211,0,0,1,.918-.748,1.08,1.08,0,0,1,1.027.388.492.492,0,1,0,.745-.642,2.058,2.058,0,0,0-1.937-.716,2.2,2.2,0,0,0-1.429.913,1.449,1.449,0,0,1-.3-2.258Z" transform="translate(-5.055 -469.362)" fill="#fff"/>
  </g>
</svg>
