<svg xmlns="http://www.w3.org/2000/svg" width="25.316" height="20.077" viewBox="0 0 25.316 20.077">
  <g id="Grupo_1894" data-name="Grupo 1894" transform="translate(0)">
    <path id="Trazado_15225" data-name="Trazado 15225" d="M97.169,421.162A7.121,7.121,0,0,0,90.74,419.5a12.03,12.03,0,0,0-3.479,1.185,6.521,6.521,0,0,0-11.344.135,12.966,12.966,0,0,0-2.257,7.342,10.221,10.221,0,0,0,2.3,6.722,7.428,7.428,0,0,0,5.677,2.641,7.276,7.276,0,0,0,3.281-.768,7.469,7.469,0,0,0,3.344.768c.2,0,.392-.006.591-.021a10.223,10.223,0,0,0,6.38-3.127,12.961,12.961,0,0,0,3.595-6.787A7.115,7.115,0,0,0,97.169,421.162ZM81.885,431.53a.729.729,0,0,0-.691.96,7.3,7.3,0,0,0,1.779,2.869q.225.225.469.431a5.887,5.887,0,0,1-1.8.278c-3.777,0-6.518-3.325-6.518-7.9a11.474,11.474,0,0,1,1.989-6.5A5.064,5.064,0,0,1,86,421.43a13.19,13.19,0,0,0-2.043,1.667,10.83,10.83,0,0,0-2.817,4.64.729.729,0,0,0,.5.9.731.731,0,0,0,.9-.5,9.368,9.368,0,0,1,2.446-4.006,11.473,11.473,0,0,1,6-3.189,5.1,5.1,0,0,1,6.406,6.406,11.471,11.471,0,0,1-3.188,6c-3.239,3.238-7.528,3.651-10.2.981a5.843,5.843,0,0,1-1.427-2.3A.731.731,0,0,0,81.885,431.53Z" transform="translate(-73.661 -417.449)" fill="#fff"/>
    <path id="Trazado_15226" data-name="Trazado 15226" d="M88.476,442.048a.73.73,0,1,0,1.031,0A.753.753,0,0,0,88.476,442.048Z" transform="translate(-81.118 -429.907)" fill="#fff"/>
  </g>
</svg>
