<svg xmlns="http://www.w3.org/2000/svg" width="17.958" height="27.061" viewBox="0 0 17.958 27.061">
  <g id="Grupo_1905" data-name="Grupo 1905" transform="translate(0)">
    <path id="Trazado_15240" data-name="Trazado 15240" d="M88.462,441.162h4.561a.529.529,0,1,0,0-1.057H88.462a1.3,1.3,0,0,1-1.294-1.294V425.827a2.271,2.271,0,0,1,.378-1.256l.549-.83a3.932,3.932,0,0,0,1.718.957v.182a1.44,1.44,0,0,0,1.431,1.446h7.722a1.44,1.44,0,0,0,1.431-1.446V424.7a3.93,3.93,0,0,0,1.7-.939l.537.812a2.268,2.268,0,0,1,.378,1.256V438.81a1.3,1.3,0,0,1-1.294,1.294H97.672a.529.529,0,1,0,0,1.057h4.046a2.354,2.354,0,0,0,2.351-2.351V425.827a3.323,3.323,0,0,0-.553-1.839l-.714-1.079a6.381,6.381,0,0,0,1.086-3.589v-2.46a1.357,1.357,0,0,0-1.349-1.362h-.7v-.238a1.16,1.16,0,0,0-1.159-1.159H89.5a1.16,1.16,0,0,0-1.159,1.159v.237h-.673a1.357,1.357,0,0,0-1.349,1.362v2.46a6.382,6.382,0,0,0,1.071,3.566l-.729,1.1a3.324,3.324,0,0,0-.553,1.839V438.81a2.354,2.354,0,0,0,2.351,2.351Zm10.878-16.283a.382.382,0,0,1-.374.389H91.244a.382.382,0,0,1-.374-.389V423.6a.382.382,0,0,1,.374-.389h7.722a.382.382,0,0,1,.374.389Zm1.057-1.285a1.44,1.44,0,0,0-1.431-1.445H91.244a1.44,1.44,0,0,0-1.431,1.445,3.006,3.006,0,0,1-1.113-.745l-.009-.01,1.552-2.347A2.159,2.159,0,0,0,90.6,419.3v-1.347h8.977V419.3a2.159,2.159,0,0,0,.359,1.194l1.565,2.366A3.014,3.014,0,0,1,100.4,423.595Zm1.438-6.8v-.237h.7a.3.3,0,0,1,.292.305v2.46a5.36,5.36,0,0,1-.671,2.617l-1.341-2.027a1.106,1.106,0,0,1-.184-.611v-1.347h.041A1.16,1.16,0,0,0,101.836,416.792ZM89.4,415.26a.1.1,0,0,1,.1-.1h11.174a.1.1,0,0,1,.1.1v1.532a.1.1,0,0,1-.1.1H89.5a.1.1,0,0,1-.1-.1Zm-2.022,4.06v-2.46a.3.3,0,0,1,.292-.305h.673v.237a1.16,1.16,0,0,0,1.159,1.159h.041V419.3a1.105,1.105,0,0,1-.184.611l-1.325,2A5.368,5.368,0,0,1,87.379,419.32Z" transform="translate(-86.111 -414.101)" fill="#fff"/>
    <path id="Trazado_15241" data-name="Trazado 15241" d="M117.86,508.362a.529.529,0,1,0,.6-.143A.533.533,0,0,0,117.86,508.362Z" transform="translate(-108.992 -482.175)" fill="#fff"/>
    <path id="Trazado_15242" data-name="Trazado 15242" d="M115.04,471.23a2.36,2.36,0,0,0-.285-1.119l-1.783-3.283a.529.529,0,0,0-.464-.276h0a.528.528,0,0,0-.463.274l-1.752,3.193a2.521,2.521,0,0,0,2.044,3.739,2.558,2.558,0,0,0,2.7-2.528Zm-1.524,1.078a1.464,1.464,0,0,1-1.11.394,1.483,1.483,0,0,1-1.367-1.328,1.451,1.451,0,0,1,.18-.847l1.286-2.344,1.321,2.432a1.428,1.428,0,0,1-.31,1.693Z" transform="translate(-103.379 -452.054)" fill="#fff"/>
  </g>
</svg>
