<svg xmlns="http://www.w3.org/2000/svg" width="16.361" height="33.185" viewBox="0 0 16.361 33.185">
  <g id="Grupo_1909" data-name="Grupo 1909" transform="translate(0)">
    <g id="Grupo_1908" data-name="Grupo 1908" transform="translate(0 0)">
      <path id="Trazado_15252" data-name="Trazado 15252" d="M166.543,486.045a.648.648,0,1,1,.636-.521.653.653,0,0,1-.636.521Z" transform="translate(-150.83 -462.935)" fill="#fff"/>
      <path id="Trazado_15253" data-name="Trazado 15253" d="M146.928,482.717h-7.862a.648.648,0,0,1-.648-.648v-8.51a.649.649,0,0,1,.648-.648h.873a.225.225,0,0,0,.225-.225v-.874a.653.653,0,0,1,.068-.29c.063-.126.676-1.232,2.764-1.232s2.7,1.106,2.764,1.232a.648.648,0,0,1,.068.29v.874a.225.225,0,0,0,.225.225h.874a.648.648,0,0,1,.648.648v8.51a.648.648,0,0,1-.648.648Zm-7.214-1.3h6.565v-7.214h-.225a1.523,1.523,0,0,1-1.522-1.522v-.655a2.142,2.142,0,0,0-1.536-.444,2.186,2.186,0,0,0-1.536.44v.659a1.523,1.523,0,0,1-1.522,1.522h-.225Z" transform="translate(-134.817 -454.507)" fill="#fff"/>
      <path id="Trazado_15254" data-name="Trazado 15254" d="M145.5,452.631a.648.648,0,0,0,.648-.648V445.7a1.786,1.786,0,0,0-1.6-1.775v-2.392a1.905,1.905,0,0,0-1.9-1.9h-1.056l-1.6-6.672a.648.648,0,0,0-.63-.5H136.58a.648.648,0,0,0-.63.5l-1.6,6.672h-1.056a1.905,1.905,0,0,0-1.9,1.9v2.392a1.786,1.786,0,0,0-1.6,1.775v18.162a1.786,1.786,0,0,0,1.784,1.784h12.793a1.786,1.786,0,0,0,1.784-1.784v-6.021a.648.648,0,0,0-1.3,0v6.021a.488.488,0,0,1-.488.488H131.57a.488.488,0,0,1-.488-.488V445.7a.488.488,0,0,1,.488-.488h12.793a.488.488,0,0,1,.488.488v6.281A.648.648,0,0,0,145.5,452.631Zm-8.407-18.872h1.75l1.41,5.873h-4.569Zm5.309,10.159v-1.1a.648.648,0,0,0-1.3,0v1.1h-1.227v-1.1a.648.648,0,0,0-1.3,0v1.1h-1.227v-1.1a.648.648,0,0,0-1.3,0v1.1h-1.227v-1.1a.648.648,0,0,0-1.3,0v1.1h-.847v-2.383a.607.607,0,0,1,.607-.607h9.348a.607.607,0,0,1,.607.607v2.383Z" transform="translate(-129.786 -432.462)" fill="#fff"/>
    </g>
  </g>
</svg>
