<svg xmlns="http://www.w3.org/2000/svg" width="30.671" height="20.812" viewBox="0 0 30.671 20.812">
  <g id="Grupo_1901" data-name="Grupo 1901" transform="translate(0)">
    <g id="Grupo_1896" data-name="Grupo 1896" transform="translate(0)">
      <g id="Grupo_1895" data-name="Grupo 1895" transform="translate(0)">
        <path id="Trazado_15227" data-name="Trazado 15227" d="M30.671,371.578v-.6a.6.6,0,0,0-.6-.6H26.659a6.044,6.044,0,0,0-5.9,4.767,18.929,18.929,0,0,0-3.474-3.215,9.263,9.263,0,0,1,3.076-2.894.6.6,0,0,0,0-1.037,10.411,10.411,0,0,0-13.182,2.333q-.365.117-.72.258h0a12.017,12.017,0,0,0-6.416,6.2.6.6,0,0,0,0,.44,11.954,11.954,0,0,0,6.417,6.207h0q.356.14.722.257a10.411,10.411,0,0,0,13.179,2.329.6.6,0,0,0,0-1.037,9.257,9.257,0,0,1-3.085-2.907,19.3,19.3,0,0,0,3.48-3.213,6.044,6.044,0,0,0,5.9,4.778h3.413a.6.6,0,0,0,.6-.6v-.6a6.041,6.041,0,0,0-3.414-5.435A6.042,6.042,0,0,0,30.671,371.578ZM15.158,367.8a9.219,9.219,0,0,1,3.707.777,10.467,10.467,0,0,0-2.587,2.7,10.41,10.41,0,0,0-5.26-1.53,13.341,13.341,0,0,0-1.653.1A9.167,9.167,0,0,1,15.158,367.8ZM6.532,382.171a11.007,11.007,0,0,1-5.277-5.159,11.012,11.012,0,0,1,5.28-5.156,7.637,7.637,0,0,1,0,10.315Zm12.333,3.272a9.222,9.222,0,0,1-9.5-1.271,13.39,13.39,0,0,0,1.652.1,10.375,10.375,0,0,0,5.252-1.542A10.463,10.463,0,0,0,18.865,385.444Zm1.761-8.328c-.974,1.3-4.8,5.959-9.608,5.959a11.467,11.467,0,0,1-3.283-.461,8.744,8.744,0,0,0,1.981-5h6.473a.6.6,0,1,0,0-1.2H9.716a8.745,8.745,0,0,0-1.98-5,11.424,11.424,0,0,1,3.281-.463c4.855,0,8.647,4.658,9.608,5.954Zm8.847,5.331v0H26.659a4.841,4.841,0,0,1-4.835-4.836v0h2.814A4.841,4.841,0,0,1,29.473,382.447Zm-4.835-6.034H21.823a4.841,4.841,0,0,1,4.835-4.836h2.814v0A4.841,4.841,0,0,1,24.637,376.413Z" transform="translate(0 -366.606)" fill="#fff"/>
      </g>
    </g>
    <g id="Grupo_1898" data-name="Grupo 1898" transform="translate(5.291 8.07)">
      <g id="Grupo_1897" data-name="Grupo 1897" transform="translate(0 0)">
        <path id="Trazado_15228" data-name="Trazado 15228" d="M16.644,391.076a.6.6,0,0,0-.6.6v.2a.6.6,0,1,0,1.2,0v-.2A.6.6,0,0,0,16.644,391.076Z" transform="translate(-16.045 -391.076)" fill="#fff"/>
      </g>
    </g>
    <g id="Grupo_1900" data-name="Grupo 1900" transform="translate(17.706 9.809)">
      <g id="Grupo_1899" data-name="Grupo 1899" transform="translate(0 0)">
        <path id="Trazado_15229" data-name="Trazado 15229" d="M54.874,396.83a.6.6,0,0,0-.034-.112.635.635,0,0,0-.055-.1.66.66,0,0,0-.075-.091.565.565,0,0,0-.091-.074.579.579,0,0,0-.1-.055.619.619,0,0,0-.112-.034.6.6,0,0,0-.234,0,.611.611,0,0,0-.112.034.56.56,0,0,0-.1.055.568.568,0,0,0-.091.074.632.632,0,0,0-.074.091.663.663,0,0,0-.055.1.6.6,0,0,0-.034.112.567.567,0,0,0,0,.234.613.613,0,0,0,.034.112.635.635,0,0,0,.055.1.593.593,0,0,0,.269.221.608.608,0,0,0,.112.034.628.628,0,0,0,.234,0,.6.6,0,0,0,.215-.089.591.591,0,0,0,.091-.075.619.619,0,0,0,.075-.091.6.6,0,0,0,.089-.449Z" transform="translate(-53.687 -396.348)" fill="#fff"/>
      </g>
    </g>
  </g>
</svg>
