<svg xmlns="http://www.w3.org/2000/svg" width="22.68" height="23.631" viewBox="0 0 22.68 23.631">
  <g id="Grupo_1910" data-name="Grupo 1910" transform="translate(0)">
    <path id="Trazado_15255" data-name="Trazado 15255" d="M113.833,476.053h0a2.511,2.511,0,0,0,.771.121,3.4,3.4,0,0,0,2.144-.87,6.654,6.654,0,0,0,1.974-3.067,6.126,6.126,0,0,0-.061-4.364,3.68,3.68,0,0,1-.283-1.465c.072-.9-.259-1.578-.864-1.773s-1.273.16-1.741.931a3.779,3.779,0,0,1-1.08,1.025A6.2,6.2,0,0,0,112.1,470.1a6.647,6.647,0,0,0-.195,3.641A3.056,3.056,0,0,0,113.833,476.053Zm-.573-5.579h0a5.034,5.034,0,0,1,2.154-2.9,4.8,4.8,0,0,0,1.4-1.375,1.291,1.291,0,0,1,.31-.364,1.23,1.23,0,0,1,.04.477,4.711,4.711,0,0,0,.342,1.948,4.949,4.949,0,0,1,.057,3.6c-.654,2.02-2.191,3.406-3.357,3.031a1.9,1.9,0,0,1-1.12-1.457A5.425,5.425,0,0,1,113.26,470.474Z" transform="translate(-111.538 -464.583)" fill="#fff"/>
    <path id="Trazado_15256" data-name="Trazado 15256" d="M124.746,474.7a3.748,3.748,0,0,1,.853,1.22c.3.849.886,1.331,1.518,1.261l.072-.01c.6-.106,1.024-.687,1.131-1.555a3.652,3.652,0,0,1,.57-1.38,6.12,6.12,0,0,0,.933-4.264,6.643,6.643,0,0,0-1.32-3.4,2.815,2.815,0,0,0-5.055.564,6.647,6.647,0,0,0-.538,3.608A6.2,6.2,0,0,0,124.746,474.7Zm-.206-7.028a1.962,1.962,0,0,1,1.313-1.193l.077-.011a1.9,1.9,0,0,1,1.621.866,5.435,5.435,0,0,1,1.06,2.773,4.955,4.955,0,0,1-.777,3.521,4.721,4.721,0,0,0-.726,1.839,1.243,1.243,0,0,1-.132.458,1.231,1.231,0,0,1-.232-.418,4.78,4.78,0,0,0-1.1-1.625,5.039,5.039,0,0,1-1.529-3.272h0A5.433,5.433,0,0,1,124.54,467.672Z" transform="translate(-107.315 -464.333)" fill="#fff"/>
    <path id="Trazado_15257" data-name="Trazado 15257" d="M119.174,477.141a6.132,6.132,0,0,0-3.831-2.094,3.67,3.67,0,0,1-1.415-.473,1.37,1.37,0,1,0-2.016,1.853,3.733,3.733,0,0,1,.363,1.444,6.2,6.2,0,0,0,1.781,3.98,6.665,6.665,0,0,0,3.077,1.96,4.174,4.174,0,0,0,1.076.149,2.726,2.726,0,0,0,1.885-.688,3.054,3.054,0,0,0,.781-2.9A6.66,6.66,0,0,0,119.174,477.141Zm.094,5.236c-.9.828-2.878.21-4.317-1.351a5.032,5.032,0,0,1-1.468-3.3,4.76,4.76,0,0,0-.509-1.9,1.232,1.232,0,0,1-.163-.448,1.271,1.271,0,0,1,.435.2,4.735,4.735,0,0,0,1.864.659,4.958,4.958,0,0,1,3.168,1.723,5.432,5.432,0,0,1,1.4,2.618A1.907,1.907,0,0,1,119.268,482.376Z" transform="translate(-111.593 -460.948)" fill="#fff"/>
    <path id="Trazado_15258" data-name="Trazado 15258" d="M121.272,479.324a3.058,3.058,0,0,0,2.409-1.8,6.661,6.661,0,0,0,.655-3.587,6.121,6.121,0,0,0-1.722-4.011,3.644,3.644,0,0,1-.821-1.247c-.276-.857-.842-1.364-1.476-1.311s-1.111.621-1.254,1.526a3.745,3.745,0,0,1-.606,1.359,6.4,6.4,0,0,0-.981,2.341.6.6,0,0,0,.1.455.609.609,0,0,0,1.1-.236,5.311,5.311,0,0,1,.824-1.927,4.793,4.793,0,0,0,.77-1.8,1.233,1.233,0,0,1,.149-.454,1.24,1.24,0,0,1,.218.424,4.7,4.7,0,0,0,1.06,1.671,4.943,4.943,0,0,1,1.427,3.308,5.427,5.427,0,0,1-.517,2.923,1.9,1.9,0,0,1-1.428,1.158c-.778.054-1.571-.617-2.082-1.769a.613.613,0,0,0-.338-.321.608.608,0,0,0-.775.815,3.633,3.633,0,0,0,3.1,2.5C121.143,479.33,121.207,479.328,121.272,479.324Z" transform="translate(-109.363 -463.528)" fill="#fff"/>
    <path id="Trazado_15259" data-name="Trazado 15259" d="M130.288,480.9h0a3.645,3.645,0,0,1-.92-1.175,6.129,6.129,0,0,0-3.257-2.908,6.68,6.68,0,0,0-3.61-.523A3.064,3.064,0,0,0,120.022,478a2.765,2.765,0,0,0,.037,2.149,6.1,6.1,0,0,0,3.322,3.063,6.626,6.626,0,0,0,2.612.585,7.534,7.534,0,0,0,1.74-.239,3.74,3.74,0,0,1,1.48-.142,1.571,1.571,0,0,0,1.846-.7C131.311,482.12,131.023,481.441,130.288,480.9Zm-.869,1.318a4.832,4.832,0,0,0-1.956.154,5.037,5.037,0,0,1-3.6-.28,4.944,4.944,0,0,1-2.67-2.4,1.6,1.6,0,0,1-.046-1.217,2.259,2.259,0,0,1,2.218-1.031,5.855,5.855,0,0,1,2.271.488,4.953,4.953,0,0,1,2.686,2.407,4.694,4.694,0,0,0,1.244,1.534.259.259,0,1,1-.145.338Z" transform="translate(-108.469 -460.164)" fill="#fff"/>
    <path id="Trazado_15260" data-name="Trazado 15260" d="M118.652,472.827a.609.609,0,1,0-.61.611A.61.61,0,0,0,118.652,472.827Z" transform="translate(-109.375 -461.684)" fill="#fff"/>
  </g>
</svg>
