<svg xmlns="http://www.w3.org/2000/svg" width="26.845" height="27.381" viewBox="0 0 26.845 27.381">
  <g id="Grupo_1904" data-name="Grupo 1904" transform="translate(0)">
    <path id="Trazado_15233" data-name="Trazado 15233" d="M13.806,486.106a.535.535,0,1,0,0,1.069h0a.535.535,0,1,0,0-1.069Z" transform="translate(-9.635 -470.122)" fill="#fff"/>
    <path id="Trazado_15234" data-name="Trazado 15234" d="M31.606,458.115a.535.535,0,0,0-.956-.138,6.948,6.948,0,0,1-.976,1.313c-.114.084-.246.088-.761.067l-.118,0c-2.961-.108-4.913.651-5.964,2.322a5.773,5.773,0,0,0-.891,2.387,5.362,5.362,0,0,0-2.173,1.3v-4.667a2.647,2.647,0,0,0-1.179-2.1,3.041,3.041,0,0,1-1.291-2.7v-1.356a1.17,1.17,0,0,0,1.066-1.164v-2.408a1.17,1.17,0,0,0-1.169-1.169h-2.4a.535.535,0,0,0,0,1.07h2.4a.1.1,0,0,1,.1.1v2.408a.1.1,0,0,1-.1.1H7.581a.1.1,0,0,1-.1-.1v-2.408a.1.1,0,0,1,.1-.1h2.4a.535.535,0,0,0,0-1.07h-2.4a1.17,1.17,0,0,0-1.169,1.169v2.408a1.17,1.17,0,0,0,1.066,1.164v1.356a3.042,3.042,0,0,1-1.291,2.7,2.648,2.648,0,0,0-1.179,2.1v13.525a1.955,1.955,0,0,0,1.953,1.952h5.894a9.468,9.468,0,0,0,3.452.976q.319.025.632.025a6.748,6.748,0,0,0,2.835-.589,5.578,5.578,0,0,0,3.055-3.72,5.812,5.812,0,0,0,4-4.733,5.544,5.544,0,0,0,2.635-1.8,5.342,5.342,0,0,0,1.271-3.55c.007-.136.015-.265.024-.392a4.291,4.291,0,0,0,.849-4.276Zm-15.38,11.566H6.079v-6.739H18.7v3.785a5.241,5.241,0,0,0-.69,2.088,9.507,9.507,0,0,0-1.781.866ZM6.892,459.4a4.109,4.109,0,0,0,1.656-3.507v-1.351h7.68v1.351a4.108,4.108,0,0,0,1.656,3.506c.534.467.813.737.813,1.3v1.178H6.079v-1.178c0-.562.279-.832.813-1.3Zm-.813,14.823V470.75h8.829A10.769,10.769,0,0,0,12.59,475.1H6.962A.885.885,0,0,1,6.079,474.219ZM29.8,461.89a.533.533,0,0,0-.1.261c-.018.193-.029.387-.039.575a4.262,4.262,0,0,1-1.025,2.923,4.4,4.4,0,0,1-2.427,1.534.535.535,0,0,0-.43.517,4.663,4.663,0,0,1-3.5,4.2.534.534,0,0,0-.417.4,4.613,4.613,0,0,1-2.545,3.314,7.028,7.028,0,0,1-5.693-.257c.954-2.933,2.071-4.636,5.061-5.65a.535.535,0,0,0,.363-.5,4.664,4.664,0,0,1,3.5-4.2.535.535,0,0,0,.43-.517,4.446,4.446,0,0,1,.754-2.25c.842-1.338,2.436-1.917,5.019-1.823l.115,0a2.044,2.044,0,0,0,1.435-.273,2.45,2.45,0,0,0,.48-.492,4.04,4.04,0,0,1-.984,2.229Z" transform="translate(-5.009 -449.792)" fill="#fff"/>
    <path id="Trazado_15235" data-name="Trazado 15235" d="M52.945,477.021c-.607-.806-1.986-.759-3.138.106a3.3,3.3,0,0,0-1.107,1.395,1.622,1.622,0,0,0,.132,1.589,1.563,1.563,0,0,0,1.29.578c.066,0,.132,0,.2-.009a3.3,3.3,0,0,0,1.649-.674c1.153-.866,1.581-2.177.974-2.985Zm-1.616,2.13a2.26,2.26,0,0,1-1.1.463.455.455,0,0,1-.53-.706,2.254,2.254,0,0,1,.751-.926,2.111,2.111,0,0,1,1.208-.468.539.539,0,0,1,.433.149C52.269,477.9,52.061,478.6,51.329,479.152Z" transform="translate(-29.39 -464.714)" fill="#fff"/>
    <path id="Trazado_15236" data-name="Trazado 15236" d="M42.7,487.6a3,3,0,0,0-2.13.659c-1.146.861-1.571,2.165-.968,2.97a1.547,1.547,0,0,0,1.282.573,3.146,3.146,0,0,0,1.84-.678,3,3,0,0,0,1.226-1.859A1.409,1.409,0,0,0,42.7,487.6Zm.191,1.516a1.927,1.927,0,0,1-.809,1.154c-.727.546-1.448.553-1.625.317s.029-.927.755-1.472a2.082,2.082,0,0,1,1.2-.465.928.928,0,0,1,.136.009.438.438,0,0,1,.289.14h0a.434.434,0,0,1,.053.316Z" transform="translate(-24.22 -470.949)" fill="#fff"/>
    <path id="Trazado_15237" data-name="Trazado 15237" d="M30.279,498.947a3.274,3.274,0,0,0-1.38,1.108,1.616,1.616,0,0,0-.223,1.573,1.737,1.737,0,0,0,1.681.9,3.432,3.432,0,0,0,1.388-.313,3.281,3.281,0,0,0,1.38-1.109,1.614,1.614,0,0,0,.223-1.571c-.41-.917-1.758-1.177-3.068-.592Zm1.959,1.564a2.242,2.242,0,0,1-.93.731c-.831.371-1.536.217-1.656-.051a.6.6,0,0,1,.133-.536,2.233,2.233,0,0,1,.93-.731,2.368,2.368,0,0,1,.953-.22c.37,0,.634.117.7.272a.605.605,0,0,1-.133.535Z" transform="translate(-18.194 -477.136)" fill="#fff"/>
    <path id="Trazado_15238" data-name="Trazado 15238" d="M21.1,450.862h0a.535.535,0,1,0-.537-.535.534.534,0,0,0,.537.535Z" transform="translate(-13.716 -449.792)" fill="#fff"/>
    <path id="Trazado_15239" data-name="Trazado 15239" d="M23.534,486.106H19.559a.535.535,0,1,0,0,1.069h3.975a.535.535,0,1,0,0-1.069Z" transform="translate(-12.855 -470.122)" fill="#fff"/>
  </g>
</svg>
