<svg xmlns="http://www.w3.org/2000/svg" width="16.326" height="16.326" viewBox="0 0 16.326 16.326">
  <path id="fi-rr-delete_user" data-name="fi-rr-delete user" d="M6.122,8.163A4.082,4.082,0,1,0,2.041,4.082,4.082,4.082,0,0,0,6.122,8.163Zm0-6.8A2.721,2.721,0,1,1,3.4,4.082,2.721,2.721,0,0,1,6.122,1.361Zm6.122,14.285a.68.68,0,0,1-1.361,0,4.762,4.762,0,1,0-9.524,0,.68.68,0,0,1-1.361,0,6.122,6.122,0,1,1,12.245,0Zm3.882-5.923a.68.68,0,1,1-.962.962l-1.22-1.22-1.22,1.22a.68.68,0,1,1-.962-.962l1.22-1.22-1.22-1.22a.68.68,0,1,1,.962-.962l1.22,1.22,1.22-1.22a.68.68,0,1,1,.962.962L14.907,8.5Z" fill="#fff"/>
</svg>
