<svg xmlns="http://www.w3.org/2000/svg" width="18.925" height="18.925" viewBox="0 0 18.925 18.925">
  <path id="_040-edit" data-name="040-edit" d="M7.614,18.925H4.435A4.441,4.441,0,0,1,0,14.489V4.435A4.441,4.441,0,0,1,4.435,0H14.489a4.441,4.441,0,0,1,4.435,4.435v3.7a.739.739,0,0,1-1.478,0v-3.7a2.96,2.96,0,0,0-2.957-2.957H4.435A2.96,2.96,0,0,0,1.478,4.435V14.489a2.96,2.96,0,0,0,2.957,2.957H7.614a.739.739,0,0,1,0,1.478Zm1-13.75A2.218,2.218,0,1,0,6.394,7.392,2.22,2.22,0,0,0,8.612,5.175Zm-1.478,0a.739.739,0,1,1-.739-.739A.74.74,0,0,1,7.134,5.175Zm8.834,2a.739.739,0,0,0-.739-.739H10.645a.739.739,0,1,0,0,1.478h4.583A.739.739,0,0,0,15.968,7.171ZM10.5,12.345a.739.739,0,0,0-.739-.739h-5.4a.739.739,0,1,0,0,1.478h5.4A.739.739,0,0,0,10.5,12.345ZM7.54,14.933a.739.739,0,0,0-.739-.739H4.362a.739.739,0,0,0,0,1.478H6.8A.739.739,0,0,0,7.54,14.933Zm3.176,3.978,2.094-.419a5.329,5.329,0,0,0,2.732-1.462l2.591-2.591a2.7,2.7,0,1,0-3.816-3.816l-2.591,2.591a5.33,5.33,0,0,0-1.462,2.732l-.419,2.094a.739.739,0,0,0,.87.87Zm6.373-7.243a1.22,1.22,0,0,1,0,1.725L14.5,15.984a3.855,3.855,0,0,1-1.977,1.058l-1.007.2.2-1.007a3.855,3.855,0,0,1,1.058-1.977l2.591-2.591a1.22,1.22,0,0,1,1.725,0Zm-1.86-6.345H10.645a.739.739,0,1,1,0-1.478h4.583a.739.739,0,0,1,0,1.478ZM8.9,10.108a.739.739,0,0,0-.049-1.044,3.293,3.293,0,0,0-2.222-.858H6.16a3.293,3.293,0,0,0-2.222.858.739.739,0,0,0,1,1.093A1.818,1.818,0,0,1,6.16,9.684h.469a1.818,1.818,0,0,1,1.227.473A.739.739,0,0,0,8.9,10.108Z" fill="#3b3a39"/>
</svg>
