<svg xmlns="http://www.w3.org/2000/svg" width="13.943" height="16.658" viewBox="0 0 13.943 16.658">
  <path id="password" d="M51.992,5.527V3.315a3.337,3.337,0,0,0-6.675,0v2.21a3.914,3.914,0,0,0-3.651,3.9v3.323a3.914,3.914,0,0,0,3.909,3.909H51.7a3.914,3.914,0,0,0,3.909-3.909V9.425a3.914,3.914,0,0,0-3.617-3.9ZM48.655,1.281a2.037,2.037,0,0,1,2.034,2.034v2.2H46.621v-2.2a2.037,2.037,0,0,1,2.034-2.034Zm5.651,11.467A2.609,2.609,0,0,1,51.7,15.354H45.575a2.609,2.609,0,0,1-2.606-2.606V9.425a2.609,2.609,0,0,1,2.606-2.606H51.7a2.609,2.609,0,0,1,2.606,2.606Zm-3.714-2.313a1.955,1.955,0,1,0-2.606,1.843v.959a.652.652,0,0,0,1.3,0v-.959A1.958,1.958,0,0,0,50.592,10.435Zm-1.955.652a.652.652,0,1,1,.652-.652A.652.652,0,0,1,48.638,11.087Z" transform="translate(-41.666 0.001)" fill="#3b3a39"/>
</svg>
