<svg xmlns="http://www.w3.org/2000/svg" width="12.156" height="14.523" viewBox="0 0 12.156 14.523">
  <path id="password" d="M50.669,4.818V2.89a2.91,2.91,0,0,0-5.819,0V4.816a3.413,3.413,0,0,0-3.183,3.4v2.9a3.412,3.412,0,0,0,3.408,3.408h5.34a3.412,3.412,0,0,0,3.408-3.408v-2.9a3.413,3.413,0,0,0-3.153-3.4Zm-2.91-3.7A1.776,1.776,0,0,1,49.533,2.89V4.809H45.985V2.89a1.776,1.776,0,0,1,1.774-1.774Zm4.927,10a2.275,2.275,0,0,1-2.272,2.272h-5.34A2.275,2.275,0,0,1,42.8,11.114v-2.9a2.275,2.275,0,0,1,2.272-2.272h5.34a2.275,2.275,0,0,1,2.272,2.272ZM49.448,9.1A1.7,1.7,0,1,0,47.176,10.7v.836a.568.568,0,0,0,1.136,0V10.7A1.707,1.707,0,0,0,49.448,9.1Zm-1.7.568a.568.568,0,1,1,.568-.568A.569.569,0,0,1,47.744,9.666Z" transform="translate(-41.666 0.001)" fill="#414141"/>
</svg>
